<?xml version="1.0" encoding="utf-8"?>
<!-- Uploaded to: SVG Repo, www.svgrepo.com, Generator: SVG Repo Mixer Tools -->
<svg width="800px" height="800px" viewBox="0 0 1024 1024" class="icon"  version="1.1" xmlns="http://www.w3.org/2000/svg"><path d="M997.275065 366.318614c0-28.307978-17.236949-61.240397-38.466837-73.497686L471.943893 11.727748c-21.23208-12.257289-38.466837 0.774029-38.466837 29.079814v410.314388c0 28.307978 17.234757 61.24259 38.466837 73.499878l486.864335 281.090988c21.229887 12.257289 38.466837-0.774029 38.466837-29.079815V366.318614z" fill="#5D7BC1" /><path d="M459.011247 4.261546c-8.919973-5.150693-22.435882-5.709835-30.163017-1.249849l-13.998306 8.082355c-4.359122 2.517239-3.810942 6.918023 1.221343 9.823373l551.029817 318.139137c19.811199-11.439405 17.322465-31.447949-5.554152-44.654684L459.011247 4.261546z" fill="#5D7BC1" /><path d="M992.889631 356.394376c0-24.470723-14.899513-35.734711-33.252556-25.137309-1.668658 0.962603-3.021564 3.550009-3.021564 5.775617v474.065445c0 6.674631 4.063105 9.746628 9.066885 6.856627l17.412367-10.053608c5.40724-3.120236 9.794867-11.505187 9.794868-18.712648V356.394376z" fill="#5D7BC1" /><path d="M978.75099 360.23821c0-18.975774-11.555619-41.049858-25.786353-49.265969L437.980897 13.644182c-20.330873-11.737615-36.835455 0.741138-36.835455 27.847508v392.904213c0 27.106369 16.504582 58.642027 36.835455 70.379642l503.934638 290.947252c20.328681 11.737615 36.835455-0.741138 36.835455-27.847508V360.23821z" fill="#4762AF" /><path d="M963.193662 350.351248c0-7.479358-4.554273-16.18006-10.165436-19.418703L425.480217 26.350978c-5.60897-3.238643-10.163244 0.203923-10.163244 7.683281v424.606518c0 7.479358 4.554273 16.182252 10.163244 19.420895l527.548009 304.579374c5.611163 3.238643 10.165437-0.203923 10.165436-7.68328V350.351248z" fill="#FFFFFF" /><path d="M410.411864 467.753709c-12.954573-7.477165-32.581584-8.290664-43.799524-1.81557L53.575656 646.670657c-40.387657 23.317354-35.31371 64.108471 11.320998 91.035037L538.137638 1010.929213c25.909146 14.958716 65.158782 16.585712 87.596857 3.63114l345.559064-199.508755c11.220134-6.477286 9.810216-17.807056-3.144356-25.286414L410.411864 467.753709z" fill="#5D7BC1" /><path d="M431.126463 455.310039c-12.722145-7.345602-31.996128-8.145944-43.014532-1.784871L64.712466 640.24161c-30.849337 17.811441-26.974806 48.969952 8.648076 69.535446l474.168503 273.760735c25.44429 14.691205 63.992257 16.289696 86.026872 3.56755l339.371217-195.936818c11.018404-6.361072 9.634799-17.489112-3.087346-24.834714L431.126463 455.310039zM748.745926 212.988483l-108.824551-62.830117v8.672196c0 7.178956 4.370085 15.531015 9.755398 18.640289l89.313755 51.566129c5.385313 3.10708 9.755399-0.197345 9.755398-7.376301v-8.672196z" fill="#4762AF" /><path d="M358.071706 860.675464l-108.826744-62.83231v17.019871c0 14.0904 8.580102 30.480961 19.146806 36.583293l70.533132 40.720949c10.566704 6.102332 19.146806-0.383725 19.146806-14.474125v-17.017678zM412.483982 510.838408l-36.274119 20.944834 36.274119 20.942642 36.276313-20.942642-36.276313-20.944834z" fill="#4762AF" /><path d="M412.483982 513.370996l-31.888685 18.412246 31.888685 18.410053 31.890878-18.410053-31.890878-18.412246z" fill="#5D7BC1" /><path d="M376.209863 531.783242l-36.276313 20.942642 36.276313 20.944834 36.274119-20.944834-36.274119-20.942642z" fill="#4762AF" /><path d="M376.209863 534.313638l-31.890879 18.412246 31.890879 18.412245 31.888685-18.412245-31.888685-18.412246z" fill="#5D7BC1" /><path d="M376.209863 573.670718l-36.276313 20.942641 36.276313 20.942641 36.274119-20.942641-36.274119-20.942641z" fill="#4762AF" /><path d="M376.209863 576.201113l-31.890879 18.412246 31.890879 18.412246 31.888685-18.412246-31.888685-18.412246z" fill="#5D7BC1" /><path d="M376.209863 615.556l-36.276313 20.944835 36.276313 20.942641 36.274119-20.942641-36.274119-20.944835z" fill="#4762AF" /><path d="M376.209863 618.088589l-31.890879 18.412246 31.890879 18.412245 31.888685-18.412245-31.888685-18.412246z" fill="#5D7BC1" /><path d="M376.209863 657.443476l-36.276313 20.944834 36.276313 20.942641 36.274119-20.942641-36.274119-20.944834z" fill="#4762AF" /><path d="M376.209863 659.976064l-31.890879 18.412246 31.890879 18.410053 31.888685-18.410053-31.888685-18.412246z" fill="#5D7BC1" /><path d="M448.760295 531.783242l-36.276313 20.942642 36.276313 20.944834 36.274119-20.944834-36.274119-20.942642z" fill="#4762AF" /><path d="M448.760295 534.313638l-31.890879 18.412246 31.890879 18.412245 31.888685-18.412245-31.888685-18.412246z" fill="#5D7BC1" /><path d="M412.483982 552.725884l-36.274119 20.944834 36.274119 20.942641 36.276313-20.942641-36.276313-20.944834z" fill="#4762AF" /><path d="M412.483982 555.258472l-31.888685 18.412246 31.888685 18.410053 31.890878-18.410053-31.890878-18.412246z" fill="#5D7BC1" /><path d="M412.483982 594.613359l-36.274119 20.942641 36.274119 20.944835 36.276313-20.944835-36.276313-20.942641z" fill="#4762AF" /><path d="M412.483982 597.145947l-31.888685 18.410053 31.888685 18.412246 31.890878-18.412246-31.890878-18.410053z" fill="#5D7BC1" /><path d="M412.483982 636.500835l-36.274119 20.942641 36.274119 20.944834 36.276313-20.944834-36.276313-20.942641z" fill="#4762AF" /><path d="M412.483982 639.03123l-31.888685 18.412246 31.888685 18.412246 31.890878-18.412246-31.890878-18.412246z" fill="#5D7BC1" /><path d="M412.483982 678.38831l-36.274119 20.942641 36.274119 20.942642 36.276313-20.942642-36.276313-20.942641z" fill="#4762AF" /><path d="M412.483982 680.918706l-31.888685 18.412245 31.888685 18.412246 31.890878-18.412246-31.890878-18.412245z" fill="#5D7BC1" /><path d="M485.034414 552.725884l-36.274119 20.944834 36.274119 20.942641 36.276312-20.942641-36.276312-20.944834z" fill="#4762AF" /><path d="M485.034414 555.258472l-31.888685 18.412246 31.888685 18.410053 31.890878-18.410053-31.890878-18.412246z" fill="#5D7BC1" /><path d="M448.760295 573.670718l-36.276313 20.942641 36.276313 20.942641 36.274119-20.942641-36.274119-20.942641z" fill="#4762AF" /><path d="M448.760295 576.201113l-31.890879 18.412246 31.890879 18.412246 31.888685-18.412246-31.888685-18.412246z" fill="#5D7BC1" /><path d="M448.760295 615.556l-36.276313 20.944835 36.276313 20.942641 36.274119-20.942641-36.274119-20.944835z" fill="#4762AF" /><path d="M448.760295 618.088589l-31.890879 18.412246 31.890879 18.412245 31.888685-18.412245-31.888685-18.412246z" fill="#5D7BC1" /><path d="M448.760295 657.443476l-36.276313 20.944834 36.276313 20.942641 36.274119-20.942641-36.274119-20.944834z" fill="#4762AF" /><path d="M448.760295 659.976064l-31.890879 18.412246 31.890879 18.410053 31.888685-18.410053-31.888685-18.412246z" fill="#5D7BC1" /><path d="M448.760295 699.330951l-36.276313 20.942642 36.276313 20.944834 36.274119-20.944834-36.274119-20.942642z" fill="#4762AF" /><path d="M448.760295 701.86354l-31.890879 18.410053 31.890879 18.412246 31.888685-18.412246-31.888685-18.410053z" fill="#5D7BC1" /><path d="M521.310726 573.670718l-36.276312 20.942641 36.276312 20.942641 36.27412-20.942641-36.27412-20.942641z" fill="#4762AF" /><path d="M521.310726 576.201113l-31.890878 18.412246 31.890878 18.412246 31.888686-18.412246-31.888686-18.412246z" fill="#5D7BC1" /><path d="M485.034414 594.613359l-36.274119 20.942641 36.274119 20.944835 36.276312-20.944835-36.276312-20.942641z" fill="#4762AF" /><path d="M485.034414 597.145947l-31.888685 18.410053 31.888685 18.412246 31.890878-18.412246-31.890878-18.410053z" fill="#5D7BC1" /><path d="M485.034414 636.500835l-36.274119 20.942641 36.274119 20.944834 36.276312-20.944834-36.276312-20.942641z" fill="#4762AF" /><path d="M485.034414 639.03123l-31.888685 18.412246 31.888685 18.412246 31.890878-18.412246-31.890878-18.412246z" fill="#5D7BC1" /><path d="M485.034414 678.38831l-36.274119 20.942641 36.274119 20.942642 36.276312-20.942642-36.276312-20.942641z" fill="#4762AF" /><path d="M485.034414 680.918706l-31.888685 18.412245 31.888685 18.412246 31.890878-18.412246-31.890878-18.412245z" fill="#5D7BC1" /><path d="M485.034414 720.273593l-36.274119 20.944834 36.274119 20.942641 36.276312-20.942641-36.276312-20.944834z" fill="#4762AF" /><path d="M485.034414 722.806181l-31.888685 18.412246 31.888685 18.412246 31.890878-18.412246-31.890878-18.412246z" fill="#5D7BC1" /><path d="M557.584846 594.613359l-36.27412 20.942641 36.27412 20.944835 36.276312-20.944835-36.276312-20.942641z" fill="#4762AF" /><path d="M557.584846 597.145947l-31.888685 18.410053 31.888685 18.412246 31.890878-18.412246-31.890878-18.410053z" fill="#5D7BC1" /><path d="M521.310726 615.556l-36.276312 20.944835 36.276312 20.942641 36.27412-20.942641-36.27412-20.944835z" fill="#4762AF" /><path d="M521.310726 618.088589l-31.890878 18.412246 31.890878 18.412245 31.888686-18.412245-31.888686-18.412246z" fill="#5D7BC1" /><path d="M521.310726 657.443476l-36.276312 20.944834 36.276312 20.942641 36.27412-20.942641-36.27412-20.944834z" fill="#4762AF" /><path d="M521.310726 659.976064l-31.890878 18.412246 31.890878 18.410053 31.888686-18.410053-31.888686-18.412246z" fill="#5D7BC1" /><path d="M521.310726 699.330951l-36.276312 20.942642 36.276312 20.944834 36.27412-20.944834-36.27412-20.942642z" fill="#4762AF" /><path d="M521.310726 701.86354l-31.890878 18.410053 31.890878 18.412246 31.888686-18.412246-31.888686-18.410053z" fill="#5D7BC1" /><path d="M521.310726 741.218427l-36.276312 20.942641 36.276312 20.944834 36.27412-20.944834-36.27412-20.942641z" fill="#4762AF" /><path d="M521.310726 743.751015l-31.890878 18.410053 31.890878 18.412246 31.888686-18.412246-31.888686-18.410053z" fill="#5D7BC1" /><path d="M593.861158 615.556l-36.276312 20.944835 36.276312 20.942641 36.276313-20.942641-36.276313-20.944835z" fill="#4762AF" /><path d="M593.861158 618.088589l-31.890878 18.412246 31.890878 18.412245 31.890878-18.412245-31.890878-18.412246z" fill="#5D7BC1" /><path d="M557.584846 636.500835l-36.27412 20.942641 36.27412 20.944834 36.276312-20.944834-36.276312-20.942641z" fill="#4762AF" /><path d="M557.584846 639.03123l-31.888685 18.412246 31.888685 18.412246 31.890878-18.412246-31.890878-18.412246z" fill="#5D7BC1" /><path d="M557.584846 678.38831l-36.27412 20.942641 36.27412 20.942642 36.276312-20.942642-36.276312-20.942641z" fill="#4762AF" /><path d="M557.584846 680.918706l-31.888685 18.412245 31.888685 18.412246 31.890878-18.412246-31.890878-18.412245z" fill="#5D7BC1" /><path d="M557.584846 720.273593l-36.27412 20.944834 36.27412 20.942641 36.276312-20.942641-36.276312-20.944834z" fill="#4762AF" /><path d="M557.584846 722.806181l-31.888685 18.412246 31.888685 18.412246 31.890878-18.412246-31.890878-18.412246z" fill="#5D7BC1" /><path d="M557.584846 762.161068l-36.27412 20.944834 36.27412 20.942642 36.276312-20.942642-36.276312-20.944834z" fill="#4762AF" /><path d="M557.584846 764.693657l-31.888685 18.412245 31.888685 18.412246 31.890878-18.412246-31.890878-18.412245z" fill="#5D7BC1" /><path d="M630.137471 636.500835l-36.276313 20.942641 36.276313 20.944834 36.274119-20.944834-36.274119-20.942641z" fill="#4762AF" /><path d="M630.137471 639.03123l-31.890878 18.412246 31.890878 18.412246 31.888685-18.412246-31.888685-18.412246z" fill="#5D7BC1" /><path d="M593.861158 657.443476l-36.276312 20.944834 36.276312 20.942641 36.276313-20.942641-36.276313-20.944834z" fill="#4762AF" /><path d="M593.861158 659.976064l-31.890878 18.412246 31.890878 18.410053 31.890878-18.410053-31.890878-18.412246z" fill="#5D7BC1" /><path d="M593.861158 699.330951l-36.276312 20.942642 36.276312 20.944834 36.276313-20.944834-36.276313-20.942642z" fill="#4762AF" /><path d="M593.861158 701.86354l-31.890878 18.410053 31.890878 18.412246 31.890878-18.412246-31.890878-18.410053z" fill="#5D7BC1" /><path d="M593.861158 741.218427l-36.276312 20.942641 36.276312 20.944834 36.276313-20.944834-36.276313-20.942641z" fill="#4762AF" /><path d="M593.861158 743.751015l-31.890878 18.410053 31.890878 18.412246 31.890878-18.412246-31.890878-18.410053z" fill="#5D7BC1" /><path d="M666.41159 657.443476l-36.274119 20.944834 36.274119 20.942641 36.276313-20.942641-36.276313-20.944834z" fill="#4762AF" /><path d="M666.41159 659.976064l-31.888685 18.412246 31.888685 18.410053 31.890878-18.410053-31.890878-18.412246z" fill="#5D7BC1" /><path d="M630.137471 678.38831l-36.276313 20.942641 36.276313 20.942642 36.274119-20.942642-36.274119-20.942641z" fill="#4762AF" /><path d="M630.137471 680.918706l-31.890878 18.412245 31.890878 18.412246 31.888685-18.412246-31.888685-18.412245z" fill="#5D7BC1" /><path d="M630.137471 720.273593l-36.276313 20.944834 36.276313 20.942641 36.274119-20.942641-36.274119-20.944834z" fill="#4762AF" /><path d="M630.137471 722.806181l-31.890878 18.412246 31.890878 18.412246 31.888685-18.412246-31.888685-18.412246z" fill="#5D7BC1" /><path d="M630.137471 762.161068l-36.276313 20.944834 36.276313 20.942642 36.274119-20.942642-36.274119-20.944834z" fill="#4762AF" /><path d="M630.137471 764.693657l-31.890878 18.412245 31.890878 18.412246 31.888685-18.412246-31.888685-18.412245z" fill="#5D7BC1" /><path d="M702.687903 678.38831l-36.276313 20.942641 36.276313 20.942642 36.274119-20.942642-36.274119-20.942641z" fill="#4762AF" /><path d="M702.687903 680.918706l-31.890878 18.412245 31.890878 18.412246 31.888685-18.412246-31.888685-18.412245z" fill="#5D7BC1" /><path d="M666.41159 699.330951l-36.274119 20.942642 36.274119 20.944834 36.276313-20.944834-36.276313-20.942642z" fill="#4762AF" /><path d="M666.41159 701.86354l-31.888685 18.410053 31.888685 18.412246 31.890878-18.412246-31.890878-18.410053z" fill="#5D7BC1" /><path d="M666.41159 741.218427l-36.274119 20.942641 36.274119 20.944834 36.276313-20.944834-36.276313-20.942641z" fill="#4762AF" /><path d="M666.41159 743.751015l-31.888685 18.410053 31.888685 18.412246 31.890878-18.412246-31.890878-18.410053z" fill="#5D7BC1" /><path d="M738.962022 699.330951l-36.274119 20.942642 36.274119 20.944834 36.276313-20.944834-36.276313-20.942642z" fill="#4762AF" /><path d="M738.962022 701.86354l-31.888685 18.410053 31.888685 18.412246 31.890878-18.412246-31.890878-18.410053z" fill="#5D7BC1" /><path d="M702.687903 720.273593l-36.276313 20.944834 36.276313 20.942641 36.274119-20.942641-36.274119-20.944834z" fill="#4762AF" /><path d="M702.687903 722.806181l-31.890878 18.412246 31.890878 18.412246 31.888685-18.412246-31.888685-18.412246z" fill="#5D7BC1" /><path d="M702.687903 762.161068l-36.276313 20.944834 36.276313 20.942642 36.274119-20.942642-36.274119-20.944834z" fill="#4762AF" /><path d="M702.687903 764.693657l-31.890878 18.412245 31.890878 18.412246 31.888685-18.412246-31.888685-18.412245z" fill="#5D7BC1" /><path d="M775.238335 720.273593l-36.276313 20.944834 36.276313 20.942641 36.274119-20.942641-36.274119-20.944834z" fill="#4762AF" /><path d="M775.238335 722.806181l-31.890878 18.412246 31.890878 18.412246 31.888685-18.412246-31.888685-18.412246z" fill="#5D7BC1" /><path d="M738.962022 741.218427l-36.274119 20.942641 36.274119 20.944834 36.276313-20.944834-36.276313-20.942641z" fill="#4762AF" /><path d="M738.962022 743.751015l-31.888685 18.410053 31.888685 18.412246 31.890878-18.412246-31.890878-18.410053z" fill="#5D7BC1" /><path d="M811.512454 741.218427l-36.274119 20.942641 36.274119 20.944834 36.276313-20.944834-36.276313-20.942641z" fill="#4762AF" /><path d="M811.512454 743.751015l-31.888685 18.410053 31.888685 18.412246 31.890878-18.412246-31.890878-18.410053z" fill="#5D7BC1" /><path d="M847.788767 762.161068l-36.276313 20.944834 36.276313 20.942642 36.274119-20.942642-36.274119-20.944834z" fill="#4762AF" /><path d="M847.788767 764.693657l-31.890878 18.412245 31.890878 18.412246 31.888685-18.412246-31.888685-18.412245z" fill="#5D7BC1" /><path d="M775.238335 762.161068l-36.276313 20.944834 36.276313 20.942642 36.274119-20.942642-36.274119-20.944834z" fill="#4762AF" /><path d="M775.238335 764.693657l-31.890878 18.412245 31.890878 18.412246 31.888685-18.412246-31.888685-18.412245z" fill="#5D7BC1" /><path d="M336.142342 718.085261c-8.007803-4.622248-20.140107-5.126573-27.075671-1.122671l-113.087194 65.292538 217.651296 125.660234 113.089387-65.290346c6.935564-4.003901 6.062863-11.00744-1.94494-15.63188l-188.632878-108.907875z" fill="#5D7BC1" /></svg>